<svg width="170" height="170" viewBox="0 0 170 170" fill="none" xmlns="http://www.w3.org/2000/svg">
<rect width="170" height="170" rx="41" fill="#FDF8F6"/>
<path d="M78.3357 125.15C74.579 125.15 71.0523 124.268 67.7557 122.505C64.459 120.742 62.0823 118.403 60.6257 115.49C59.9357 114.11 59.5523 112.577 59.4757 110.89C59.399 109.203 59.6673 107.823 60.2807 106.75C61.124 105.293 62.3123 104.45 63.8457 104.22C65.4557 103.913 66.9123 104.335 68.2157 105.485C68.6757 105.945 69.059 106.558 69.3657 107.325C69.6723 108.015 69.8257 108.628 69.8257 109.165C69.9023 109.625 69.9407 110.353 69.9407 111.35C69.9407 112.27 69.9407 112.845 69.9407 113.075C70.094 115.605 70.8223 117.713 72.1257 119.4C73.5057 121.01 75.5373 121.815 78.2207 121.815C82.054 121.815 84.7373 119.898 86.2707 116.065C87.8807 112.155 88.6857 106.213 88.6857 98.24V52.815C88.6857 50.745 88.4173 49.2117 87.8807 48.215C87.344 47.1417 86.3857 46.4517 85.0057 46.145C84.239 45.9917 83.8557 45.57 83.8557 44.88C83.8557 44.4967 83.9707 44.19 84.2007 43.96C84.5073 43.6533 84.8523 43.5 85.2357 43.5H103.061C103.444 43.5 103.751 43.6533 103.981 43.96C104.287 44.19 104.441 44.4967 104.441 44.88C104.441 45.57 104.096 45.9917 103.406 46.145C101.949 46.4517 100.952 47.1417 100.416 48.215C99.879 49.2117 99.6107 50.745 99.6107 52.815V93.87C99.6107 104.68 97.8473 112.615 94.3207 117.675C90.794 122.658 85.4657 125.15 78.3357 125.15Z" fill="#2E3421"/>
</svg>
